<svg width="16" height="16" viewBox="0 0 16 16" fill="none" xmlns="http://www.w3.org/2000/svg">
<g opacity="0.7" clip-path="url(#clip0_1_513)">
<path d="M14.9279 6.92814H14.7951C14.6231 5.82847 14.1905 4.81521 13.5626 3.95344L13.6567 3.8593C14.0753 3.44065 14.0753 2.76192 13.6567 2.34327C13.2381 1.92472 12.5593 1.92472 12.1407 2.34327L12.0465 2.43742C11.1848 1.80945 10.1715 1.37685 9.07185 1.2049V1.07213C9.07185 0.480099 8.59194 0.000183105 7.9999 0.000183105C7.40787 0.000183105 6.92796 0.480099 6.92796 1.07213V1.2049C5.82829 1.37694 4.81503 1.80945 3.95326 2.43742L3.85911 2.34327C3.44046 1.92472 2.76174 1.92472 2.34309 2.34327C1.92454 2.76192 1.92454 3.44065 2.34309 3.8593L2.43724 3.95344C1.80927 4.81521 1.37666 5.82847 1.20471 6.92814H1.07195C0.479916 6.92814 0 7.40805 0 8.00009C0 8.59212 0.479916 9.07204 1.07195 9.07204H1.20471C1.37676 10.1717 1.80927 11.185 2.43724 12.0467L2.34309 12.1409C1.92454 12.5595 1.92454 13.2383 2.34309 13.6569C2.76174 14.0755 3.44046 14.0755 3.85911 13.6569L3.95326 13.5628C4.81503 14.1907 5.82829 14.6233 6.92796 14.7953V14.928C6.92796 15.5201 7.40787 16 7.9999 16C8.59194 16 9.07185 15.5201 9.07185 14.928V14.7953C10.1715 14.6232 11.1848 14.1907 12.0465 13.5628L12.1407 13.6569C12.5593 14.0755 13.2381 14.0755 13.6567 13.6569C14.0753 13.2383 14.0753 12.5595 13.6567 12.1409L13.5626 12.0467C14.1905 11.185 14.6231 10.1717 14.7951 9.07204H14.9279C15.5199 9.07204 15.9998 8.59212 15.9998 8.00009C15.9998 7.40805 15.5199 6.92814 14.9279 6.92814ZM7.99981 13.2904C5.07797 13.2904 2.70946 10.9219 2.70946 8.00009C2.70946 5.07825 5.07797 2.70973 7.99981 2.70973C10.9216 2.70973 13.2902 5.07825 13.2902 8.00009C13.2902 10.9219 10.9216 13.2904 7.99981 13.2904Z" fill="#0B89CE"/>
<path d="M15.9997 8C15.9997 8.59203 15.5197 9.07195 14.9277 9.07195H14.7949C14.6229 10.1716 14.1904 11.1849 13.5624 12.0466L13.6566 12.1408C14.0751 12.5594 14.0751 13.2382 13.6566 13.6568C13.2379 14.0754 12.5592 14.0754 12.1405 13.6568L12.0464 13.5627C11.1846 14.1906 10.1714 14.6232 9.07171 14.7952V14.928C9.07171 15.52 8.59179 15.9999 7.99976 15.9999V13.2903C10.9216 13.2903 13.2901 10.9217 13.2901 7.9999C13.2901 5.07807 10.9216 2.70955 7.99976 2.70955V0C8.59179 0 9.07171 0.479916 9.07171 1.07195V1.20471C10.1714 1.37676 11.1846 1.80927 12.0464 2.43724L12.1405 2.34309C12.5592 1.92454 13.2379 1.92454 13.6566 2.34309C14.0751 2.76174 14.0751 3.44046 13.6566 3.85911L13.5624 3.95326C14.1904 4.81503 14.623 5.82829 14.7949 6.92796H14.9277C15.5197 6.92796 15.9997 7.40787 15.9997 7.9999V8Z" fill="#0096FC"/>
<path d="M10.335 7.34047L7.97135 11.5514C7.86707 11.7371 7.5831 11.6471 7.60508 11.4352L7.86191 8.95551H5.8372C5.68714 8.95551 5.59261 8.79408 5.66601 8.66322L8.02966 4.45227C8.13394 4.26656 8.41791 4.3566 8.39593 4.5685L8.1391 7.04818H10.1638C10.3139 7.04818 10.4084 7.20962 10.335 7.34047Z" fill="#F4B30F"/>
</g>
<defs>
<clipPath id="clip0_1_513">
<rect width="16" height="16" fill="white"/>
</clipPath>
</defs>
</svg>
