<svg width="43" height="50" viewBox="0 0 43 50" fill="none" xmlns="http://www.w3.org/2000/svg">
<g clip-path="url(#clip0_1_902)">
<path d="M43 42.1113C38.4718 46.9714 32.0275 50 24.88 50C11.1375 50 0 38.8016 0 25C0 11.1984 11.1375 0 24.88 0C25.9708 0 27.0401 0.0721084 28.0878 0.209115L27.8007 0.51197C27.8007 0.51197 27.7649 0.504759 27.7505 0.504759C27.5137 0.76435 27.284 1.03115 27.0616 1.29795C23.4448 5.63167 21.2704 11.2273 21.2704 17.3277C21.2704 29.9611 30.6138 40.4096 42.7345 42.0681C42.7775 42.0825 42.8278 42.0897 42.8708 42.0897L43 42.1113Z" fill="url(#paint0_radial_1_902)"/>
<path d="M42.8708 42.0897L42.7273 42.0753H42.7345C42.7775 42.0825 42.8278 42.0897 42.8708 42.0897Z" fill="url(#paint1_radial_1_902)"/>
<path d="M7.49203 29.4202C9.83148 29.2111 11.5035 26.5431 11.2237 23.4713C10.951 20.3923 8.83398 18.0704 6.49453 18.2867C4.15508 18.4958 2.48301 21.1638 2.76289 24.2357C3.03558 27.3147 5.15257 29.6366 7.49203 29.4202Z" fill="#B0B1B6"/>
<path d="M5.46834 31.6556C4.06179 32.3983 3.71016 34.4895 4.67895 36.3282C5.64056 38.1742 7.55662 39.0612 8.95599 38.3257C10.3554 37.5901 10.707 35.4918 9.74537 33.653C8.78376 31.8143 6.8677 30.9129 5.46834 31.6556Z" fill="#B0B1B6"/>
<path d="M11.0156 29.4347C10.1904 29.8745 9.97506 31.1076 10.5492 32.1964C11.1161 33.2853 12.2499 33.8117 13.0752 33.379C13.9005 32.9464 14.1086 31.7061 13.5417 30.6173C12.9747 29.5284 11.8409 29.002 11.0156 29.4347Z" fill="#B0B1B6"/>
<path style="mix-blend-mode:overlay" d="M19.8423 15.8999C22.7128 10.8884 22.3684 5.09086 19.0673 2.93481C15.7662 0.77877 10.7572 3.09345 7.87955 8.09778C5.00905 13.1021 5.35351 18.9068 8.65458 21.0629C11.9628 23.2189 16.9647 20.9042 19.8423 15.8999Z" fill="url(#paint2_radial_1_902)"/>
<path style="mix-blend-mode:overlay" opacity="0.4" d="M30.8578 42.3925C30.3124 40.3735 26.5305 39.227 22.397 39.8399C18.2635 40.4528 15.3571 42.58 15.8953 44.6063C16.4336 46.6253 20.2226 47.7718 24.3561 47.1661C28.4896 46.5532 31.396 44.4188 30.8578 42.3998V42.3925Z" fill="url(#paint3_radial_1_902)"/>
</g>
<defs>
<radialGradient id="paint0_radial_1_902" cx="0" cy="0" r="1" gradientUnits="userSpaceOnUse" gradientTransform="translate(16.5843 9.32362) scale(45.0093 45.2264)">
<stop stop-color="#FCFCFC"/>
<stop offset="0.16" stop-color="#F1EDF5"/>
<stop offset="1" stop-color="#9FA1A6"/>
</radialGradient>
<radialGradient id="paint1_radial_1_902" cx="0" cy="0" r="1" gradientUnits="userSpaceOnUse" gradientTransform="translate(42.7847 42.0753) scale(0.0861151 0.0865321)">
<stop stop-color="#FCFCFC"/>
<stop offset="0.16" stop-color="#F1EDF5"/>
<stop offset="1" stop-color="#9FA1A6"/>
</radialGradient>
<radialGradient id="paint2_radial_1_902" cx="0" cy="0" r="1" gradientTransform="matrix(5.99077 3.90772 5.65668 -8.75587 -136.621 -88.3104)" gradientUnits="userSpaceOnUse">
<stop stop-color="white"/>
<stop offset="0.1" stop-color="white" stop-opacity="0.85"/>
<stop offset="0.29" stop-color="white" stop-opacity="0.59"/>
<stop offset="0.47" stop-color="white" stop-opacity="0.38"/>
<stop offset="0.63" stop-color="white" stop-opacity="0.22"/>
<stop offset="0.78" stop-color="white" stop-opacity="0.1"/>
<stop offset="0.91" stop-color="white" stop-opacity="0.03"/>
<stop offset="1" stop-color="white" stop-opacity="0"/>
</radialGradient>
<radialGradient id="paint3_radial_1_902" cx="0" cy="0" r="1" gradientTransform="matrix(7.51057 -1.10903 -0.546882 -3.7394 199.215 10.816)" gradientUnits="userSpaceOnUse">
<stop stop-color="white"/>
<stop offset="0.1" stop-color="white" stop-opacity="0.85"/>
<stop offset="0.29" stop-color="white" stop-opacity="0.59"/>
<stop offset="0.47" stop-color="white" stop-opacity="0.38"/>
<stop offset="0.63" stop-color="white" stop-opacity="0.22"/>
<stop offset="0.78" stop-color="white" stop-opacity="0.1"/>
<stop offset="0.91" stop-color="white" stop-opacity="0.03"/>
<stop offset="1" stop-color="white" stop-opacity="0"/>
</radialGradient>
<clipPath id="clip0_1_902">
<rect width="43" height="50" fill="white"/>
</clipPath>
</defs>
</svg>
