<svg width="33" height="72" viewBox="0 0 33 72" fill="none" xmlns="http://www.w3.org/2000/svg">
<rect x="12" y="44.1855" width="4.9999" height="0.993371" rx="0.496686" fill="#9AA9BC"/>
<rect x="12" y="32.2656" width="4.9999" height="0.993371" rx="0.496686" fill="#9AA9BC"/>
<rect x="12" y="20.3438" width="4.9999" height="0.993371" rx="0.496686" fill="#9AA9BC"/>
<rect x="12" y="8.42383" width="4.9999" height="0.993371" rx="0.496686" fill="#9AA9BC"/>
<mask id="path-5-inside-1_1_1142" fill="white">
<path d="M21 0C23.7614 0 26 2.23858 26 5V49.0234C30.131 50.9251 33.001 55.1079 33.001 59.9648C33.0009 66.6116 27.6276 72 21 72C14.3726 71.9998 9.00004 66.6115 9 59.9648C9 55.1083 11.8696 50.9263 16 49.0244V5C16 2.23858 18.2386 0 21 0Z"/>
</mask>
<path d="M21 0C23.7614 0 26 2.23858 26 5V49.0234C30.131 50.9251 33.001 55.1079 33.001 59.9648C33.0009 66.6116 27.6276 72 21 72C14.3726 71.9998 9.00004 66.6115 9 59.9648C9 55.1083 11.8696 50.9263 16 49.0244V5C16 2.23858 18.2386 0 21 0Z" fill="white"/>
<path d="M26 49.0234H24.6538V49.8857L25.4371 50.2462L26 49.0234ZM33.001 59.9648L34.3471 59.9649V59.9648H33.001ZM21 72L21 73.3462H21V72ZM9 59.9648H7.65385V59.9649L9 59.9648ZM16 49.0244L16.563 50.2472L17.3462 49.8866V49.0244H16ZM21 0V1.34615C23.018 1.34615 24.6538 2.98204 24.6538 5H26H27.3462C27.3462 1.49512 24.5049 -1.34615 21 -1.34615V0ZM26 5H24.6538V49.0234H26H27.3462V5H26ZM26 49.0234L25.4371 50.2462C29.1073 51.9358 31.6548 55.6515 31.6548 59.9648H33.001H34.3471C34.3471 54.5642 31.1546 49.9144 26.5629 47.8006L26 49.0234ZM33.001 59.9648L31.6548 59.9648C31.6548 65.8717 26.8806 70.6538 21 70.6538V72V73.3462C28.3747 73.3462 34.3471 67.3515 34.3471 59.9649L33.001 59.9648ZM21 72L21 70.6538C15.1197 70.6536 10.3462 65.8717 10.3462 59.9648L9 59.9648L7.65385 59.9649C7.6539 67.3512 13.6254 73.3459 21 73.3462L21 72ZM9 59.9648H10.3462C10.3462 55.652 12.8932 51.937 16.563 50.2472L16 49.0244L15.437 47.8017C10.846 49.9156 7.65385 54.5646 7.65385 59.9648H9ZM16 49.0244H17.3462V5H16H14.6538V49.0244H16ZM16 5H17.3462C17.3462 2.98204 18.982 1.34615 21 1.34615V0V-1.34615C17.4951 -1.34615 14.6538 1.49512 14.6538 5H16Z" fill="black" mask="url(#path-5-inside-1_1_1142)"/>
<ellipse cx="21.0006" cy="59.9654" rx="8.66661" ry="8.692" fill="#E9380B"/>
<rect x="18" y="20" width="6" height="36" rx="3" fill="#E9380B"/>
<path d="M4.25 46.239C4.03598 46.239 3.85369 46.1808 3.70312 46.0643C3.55256 45.9469 3.4375 45.7769 3.35795 45.5543C3.27841 45.3308 3.23864 45.061 3.23864 44.7447C3.23864 44.4303 3.27841 44.1618 3.35795 43.9393C3.43845 43.7158 3.55398 43.5453 3.70455 43.4279C3.85606 43.3095 4.03788 43.2504 4.25 43.2504C4.46212 43.2504 4.64347 43.3095 4.79403 43.4279C4.94555 43.5453 5.06108 43.7158 5.14062 43.9393C5.22112 44.1618 5.26136 44.4303 5.26136 44.7447C5.26136 45.061 5.22159 45.3308 5.14205 45.5543C5.0625 45.7769 4.94744 45.9469 4.79688 46.0643C4.64631 46.1808 4.46402 46.239 4.25 46.239ZM4.25 45.9265C4.46212 45.9265 4.62689 45.8242 4.74432 45.6197C4.86174 45.4151 4.92045 45.1235 4.92045 44.7447C4.92045 44.4928 4.89347 44.2783 4.83949 44.1012C4.78646 43.9241 4.70975 43.7892 4.60938 43.6964C4.50994 43.6036 4.39015 43.5572 4.25 43.5572C4.03977 43.5572 3.87547 43.6609 3.7571 43.8683C3.63873 44.0747 3.57955 44.3668 3.57955 44.7447C3.57955 44.9966 3.60606 45.2106 3.65909 45.3867C3.71212 45.5629 3.78835 45.6969 3.88778 45.7887C3.98816 45.8806 4.1089 45.9265 4.25 45.9265ZM6.40909 44.5742C6.28883 44.5742 6.17898 44.5449 6.07955 44.4862C5.98106 44.4274 5.90246 44.3488 5.84375 44.2504C5.78504 44.1509 5.75568 44.0411 5.75568 43.9208C5.75568 43.8005 5.78504 43.6912 5.84375 43.5927C5.90246 43.4933 5.98106 43.4142 6.07955 43.3555C6.17898 43.2968 6.28883 43.2674 6.40909 43.2674C6.52936 43.2674 6.63873 43.2968 6.73722 43.3555C6.83665 43.4142 6.91572 43.4933 6.97443 43.5927C7.03314 43.6912 7.0625 43.8005 7.0625 43.9208C7.0625 44.0411 7.03314 44.1509 6.97443 44.2504C6.91572 44.3488 6.83665 44.4274 6.73722 44.4862C6.63873 44.5449 6.52936 44.5742 6.40909 44.5742ZM6.40909 44.2901C6.47727 44.2901 6.5393 44.2736 6.59517 44.2404C6.65104 44.2073 6.69555 44.1628 6.72869 44.1069C6.76184 44.051 6.77841 43.989 6.77841 43.9208C6.77841 43.8526 6.76184 43.7906 6.72869 43.7347C6.69555 43.6789 6.65104 43.6344 6.59517 43.6012C6.5393 43.5681 6.47727 43.5515 6.40909 43.5515C6.34091 43.5515 6.27888 43.5681 6.22301 43.6012C6.16714 43.6344 6.12263 43.6789 6.08949 43.7347C6.05634 43.7906 6.03977 43.8526 6.03977 43.9208C6.03977 43.989 6.05634 44.051 6.08949 44.1069C6.12263 44.1628 6.16714 44.2073 6.22301 44.2404C6.27888 44.2736 6.34091 44.2901 6.40909 44.2901ZM9.96271 44.1992H9.61044C9.58961 44.0979 9.55315 44.0089 9.50107 43.9322C9.44993 43.8555 9.38743 43.7911 9.31357 43.739C9.24065 43.686 9.15968 43.6462 9.07067 43.6197C8.98165 43.5932 8.88885 43.5799 8.79226 43.5799C8.61612 43.5799 8.45656 43.6244 8.31357 43.7134C8.17152 43.8024 8.05836 43.9336 7.97408 44.1069C7.89074 44.2802 7.84908 44.4928 7.84908 44.7447C7.84908 44.9966 7.89074 45.2092 7.97408 45.3825C8.05836 45.5558 8.17152 45.6869 8.31357 45.7759C8.45656 45.8649 8.61612 45.9094 8.79226 45.9094C8.88885 45.9094 8.98165 45.8962 9.07067 45.8697C9.15968 45.8432 9.24065 45.8039 9.31357 45.7518C9.38743 45.6987 9.44993 45.6339 9.50107 45.5572C9.55315 45.4795 9.58961 45.3905 9.61044 45.2901H9.96271C9.9362 45.4388 9.8879 45.5719 9.81783 45.6893C9.74775 45.8067 9.66063 45.9066 9.55646 45.989C9.4523 46.0704 9.33535 46.1325 9.20561 46.1751C9.07682 46.2177 8.93904 46.239 8.79226 46.239C8.54415 46.239 8.32351 46.1784 8.13033 46.0572C7.93714 45.936 7.78516 45.7636 7.67436 45.5401C7.56357 45.3166 7.50817 45.0515 7.50817 44.7447C7.50817 44.4379 7.56357 44.1727 7.67436 43.9492C7.78516 43.7257 7.93714 43.5534 8.13033 43.4322C8.32351 43.311 8.54415 43.2504 8.79226 43.2504C8.93904 43.2504 9.07682 43.2717 9.20561 43.3143C9.33535 43.3569 9.4523 43.4194 9.55646 43.5018C9.66063 43.5832 9.74775 43.6826 9.81783 43.8001C9.8879 43.9165 9.9362 44.0496 9.96271 44.1992Z" fill="black"/>
<path d="M2.32582 31.3702V34.2793H1.97354V31.7395H1.9565L1.24627 32.2111V31.8532L1.97354 31.3702H2.32582ZM4.07156 34.3191C3.90489 34.3191 3.75479 34.2859 3.62127 34.2196C3.48775 34.1533 3.38074 34.0624 3.30025 33.9469C3.21976 33.8314 3.17572 33.6998 3.16815 33.552H3.50906C3.52231 33.6837 3.58197 33.7926 3.68803 33.8787C3.79504 33.964 3.92288 34.0066 4.07156 34.0066C4.19087 34.0066 4.29693 33.9786 4.38974 33.9228C4.48349 33.8669 4.55688 33.7902 4.60991 33.6926C4.66388 33.5942 4.69087 33.4829 4.69087 33.3588C4.69087 33.2319 4.66294 33.1188 4.60707 33.0194C4.55214 32.919 4.47639 32.8399 4.37979 32.7821C4.2832 32.7244 4.17288 32.695 4.04883 32.6941C3.95981 32.6931 3.86843 32.7069 3.77468 32.7353C3.68093 32.7627 3.60375 32.7982 3.54315 32.8418L3.2136 32.802L3.38974 31.3702H4.9011V31.6827H3.68519L3.58292 32.5407H3.59996C3.65962 32.4933 3.73443 32.454 3.8244 32.4228C3.91436 32.3915 4.00811 32.3759 4.10565 32.3759C4.28368 32.3759 4.44229 32.4185 4.5815 32.5037C4.72165 32.588 4.8315 32.7035 4.91104 32.8503C4.99154 32.9971 5.03178 33.1647 5.03178 33.3532C5.03178 33.5388 4.99012 33.7045 4.90678 33.8503C4.8244 33.9952 4.71076 34.1098 4.56587 34.1941C4.42099 34.2774 4.25621 34.3191 4.07156 34.3191ZM6.20401 32.6543C6.08375 32.6543 5.9739 32.6249 5.87447 32.5662C5.77598 32.5075 5.69738 32.4289 5.63867 32.3304C5.57996 32.231 5.5506 32.1212 5.5506 32.0009C5.5506 31.8806 5.57996 31.7712 5.63867 31.6728C5.69738 31.5733 5.77598 31.4943 5.87447 31.4355C5.9739 31.3768 6.08375 31.3475 6.20401 31.3475C6.32428 31.3475 6.43365 31.3768 6.53214 31.4355C6.63157 31.4943 6.71064 31.5733 6.76935 31.6728C6.82807 31.7712 6.85742 31.8806 6.85742 32.0009C6.85742 32.1212 6.82807 32.231 6.76935 32.3304C6.71064 32.4289 6.63157 32.5075 6.53214 32.5662C6.43365 32.6249 6.32428 32.6543 6.20401 32.6543ZM6.20401 32.3702C6.27219 32.3702 6.33422 32.3536 6.39009 32.3205C6.44596 32.2873 6.49047 32.2428 6.52362 32.187C6.55676 32.1311 6.57333 32.0691 6.57333 32.0009C6.57333 31.9327 6.55676 31.8707 6.52362 31.8148C6.49047 31.7589 6.44596 31.7144 6.39009 31.6813C6.33422 31.6481 6.27219 31.6316 6.20401 31.6316C6.13583 31.6316 6.0738 31.6481 6.01793 31.6813C5.96206 31.7144 5.91755 31.7589 5.88441 31.8148C5.85127 31.8707 5.83469 31.9327 5.83469 32.0009C5.83469 32.0691 5.85127 32.1311 5.88441 32.187C5.91755 32.2428 5.96206 32.2873 6.01793 32.3205C6.0738 32.3536 6.13583 32.3702 6.20401 32.3702ZM9.75764 32.2793H9.40536C9.38453 32.178 9.34807 32.089 9.29599 32.0123C9.24485 31.9355 9.18235 31.8712 9.10849 31.8191C9.03557 31.766 8.9546 31.7263 8.86559 31.6998C8.77657 31.6732 8.68377 31.66 8.58718 31.66C8.41104 31.66 8.25148 31.7045 8.10849 31.7935C7.96644 31.8825 7.85328 32.0137 7.769 32.187C7.68567 32.3603 7.644 32.5729 7.644 32.8248C7.644 33.0766 7.68567 33.2892 7.769 33.4625C7.85328 33.6358 7.96644 33.767 8.10849 33.856C8.25148 33.945 8.41104 33.9895 8.58718 33.9895C8.68377 33.9895 8.77657 33.9763 8.86559 33.9498C8.9546 33.9232 9.03557 33.8839 9.10849 33.8319C9.18235 33.7788 9.24485 33.714 9.29599 33.6373C9.34807 33.5596 9.38453 33.4706 9.40536 33.3702H9.75764C9.73112 33.5189 9.68282 33.6519 9.61275 33.7694C9.54267 33.8868 9.45555 33.9867 9.35139 34.0691C9.24722 34.1505 9.13027 34.2125 9.00053 34.2551C8.87174 34.2978 8.73396 34.3191 8.58718 34.3191C8.33907 34.3191 8.11843 34.2585 7.92525 34.1373C7.73207 34.016 7.58008 33.8437 7.46928 33.6202C7.35849 33.3967 7.30309 33.1316 7.30309 32.8248C7.30309 32.5179 7.35849 32.2528 7.46928 32.0293C7.58008 31.8058 7.73207 31.6335 7.92525 31.5123C8.11843 31.391 8.33907 31.3304 8.58718 31.3304C8.73396 31.3304 8.87174 31.3517 9.00053 31.3944C9.13027 31.437 9.24722 31.4995 9.35139 31.5819C9.45555 31.6633 9.54267 31.7627 9.61275 31.8801C9.68282 31.9966 9.73112 32.1297 9.75764 32.2793Z" fill="black"/>
<path d="M1.28409 22.3972C1.09659 22.3972 0.929451 22.365 0.78267 22.3006C0.636837 22.2362 0.520833 22.1467 0.434659 22.0321C0.349432 21.9166 0.30303 21.7826 0.295455 21.6301H0.653409C0.660985 21.7239 0.693182 21.8049 0.75 21.873C0.806818 21.9403 0.881155 21.9924 0.973011 22.0293C1.06487 22.0662 1.16667 22.0847 1.27841 22.0847C1.40341 22.0847 1.5142 22.0629 1.6108 22.0194C1.70739 21.9758 1.78314 21.9152 1.83807 21.8375C1.89299 21.7599 1.92045 21.6699 1.92045 21.5676C1.92045 21.4606 1.89394 21.3664 1.84091 21.285C1.78788 21.2026 1.71023 21.1382 1.60795 21.0918C1.50568 21.0454 1.38068 21.0222 1.23295 21.0222H1V20.7097H1.23295C1.34848 20.7097 1.44981 20.6889 1.53693 20.6472C1.625 20.6055 1.69366 20.5468 1.7429 20.4711C1.79309 20.3953 1.81818 20.3063 1.81818 20.204C1.81818 20.1055 1.7964 20.0198 1.75284 19.9469C1.70928 19.874 1.64773 19.8172 1.56818 19.7765C1.48958 19.7357 1.39678 19.7154 1.28977 19.7154C1.18939 19.7154 1.0947 19.7338 1.00568 19.7708C0.917614 19.8068 0.845644 19.8593 0.789773 19.9284C0.733902 19.9966 0.703599 20.079 0.698864 20.1756H0.357955C0.363636 20.0231 0.409564 19.8896 0.495739 19.775C0.581913 19.6595 0.694602 19.5695 0.833807 19.5051C0.973958 19.4408 1.12784 19.4086 1.29545 19.4086C1.47538 19.4086 1.62973 19.445 1.75852 19.5179C1.88731 19.5899 1.98627 19.6851 2.0554 19.8034C2.12453 19.9218 2.15909 20.0497 2.15909 20.187C2.15909 20.3508 2.116 20.4905 2.02983 20.606C1.9446 20.7215 1.8286 20.8016 1.68182 20.8461V20.8688C1.86553 20.8991 2.009 20.9772 2.11222 21.1032C2.21544 21.2282 2.26705 21.383 2.26705 21.5676C2.26705 21.7258 2.22396 21.8678 2.13778 21.9938C2.05256 22.1188 1.93608 22.2173 1.78835 22.2892C1.64063 22.3612 1.47254 22.3972 1.28409 22.3972ZM3.79688 22.3972C3.58286 22.3972 3.40057 22.339 3.25 22.2225C3.09943 22.1051 2.98438 21.9351 2.90483 21.7125C2.82528 21.4891 2.78551 21.2192 2.78551 20.9029C2.78551 20.5885 2.82528 20.32 2.90483 20.0975C2.98532 19.874 3.10085 19.7035 3.25142 19.5861C3.40294 19.4677 3.58475 19.4086 3.79688 19.4086C4.009 19.4086 4.19034 19.4677 4.34091 19.5861C4.49242 19.7035 4.60795 19.874 4.6875 20.0975C4.76799 20.32 4.80824 20.5885 4.80824 20.9029C4.80824 21.2192 4.76847 21.4891 4.68892 21.7125C4.60938 21.9351 4.49432 22.1051 4.34375 22.2225C4.19318 22.339 4.01089 22.3972 3.79688 22.3972ZM3.79688 22.0847C4.009 22.0847 4.17377 21.9824 4.29119 21.7779C4.40862 21.5733 4.46733 21.2817 4.46733 20.9029C4.46733 20.651 4.44034 20.4365 4.38636 20.2594C4.33333 20.0823 4.25663 19.9474 4.15625 19.8546C4.05682 19.7618 3.93703 19.7154 3.79688 19.7154C3.58665 19.7154 3.42235 19.8191 3.30398 20.0265C3.18561 20.2329 3.12642 20.525 3.12642 20.9029C3.12642 21.1548 3.15294 21.3688 3.20597 21.5449C3.259 21.7211 3.33523 21.8551 3.43466 21.9469C3.53504 22.0388 3.65578 22.0847 3.79688 22.0847ZM5.95597 20.7324C5.8357 20.7324 5.72585 20.7031 5.62642 20.6444C5.52794 20.5856 5.44934 20.507 5.39062 20.4086C5.33191 20.3091 5.30256 20.1993 5.30256 20.079C5.30256 19.9587 5.33191 19.8494 5.39062 19.7509C5.44934 19.6515 5.52794 19.5724 5.62642 19.5137C5.72585 19.455 5.8357 19.4256 5.95597 19.4256C6.07623 19.4256 6.18561 19.455 6.28409 19.5137C6.38352 19.5724 6.46259 19.6515 6.52131 19.7509C6.58002 19.8494 6.60938 19.9587 6.60938 20.079C6.60938 20.1993 6.58002 20.3091 6.52131 20.4086C6.46259 20.507 6.38352 20.5856 6.28409 20.6444C6.18561 20.7031 6.07623 20.7324 5.95597 20.7324ZM5.95597 20.4483C6.02415 20.4483 6.08617 20.4318 6.14205 20.3986C6.19792 20.3655 6.24242 20.321 6.27557 20.2651C6.30871 20.2092 6.32528 20.1472 6.32528 20.079C6.32528 20.0108 6.30871 19.9488 6.27557 19.8929C6.24242 19.8371 6.19792 19.7926 6.14205 19.7594C6.08617 19.7263 6.02415 19.7097 5.95597 19.7097C5.88778 19.7097 5.82576 19.7263 5.76989 19.7594C5.71402 19.7926 5.66951 19.8371 5.63636 19.8929C5.60322 19.9488 5.58665 20.0108 5.58665 20.079C5.58665 20.1472 5.60322 20.2092 5.63636 20.2651C5.66951 20.321 5.71402 20.3655 5.76989 20.3986C5.82576 20.4318 5.88778 20.4483 5.95597 20.4483ZM9.50959 20.3574H9.15732C9.13648 20.2561 9.10002 20.1671 9.04794 20.0904C8.9968 20.0137 8.9343 19.9493 8.86044 19.8972C8.78752 19.8442 8.70656 19.8044 8.61754 19.7779C8.52853 19.7514 8.43572 19.7381 8.33913 19.7381C8.163 19.7381 8.00343 19.7826 7.86044 19.8716C7.71839 19.9606 7.60523 20.0918 7.52095 20.2651C7.43762 20.4384 7.39595 20.651 7.39595 20.9029C7.39595 21.1548 7.43762 21.3674 7.52095 21.5407C7.60523 21.714 7.71839 21.8451 7.86044 21.9341C8.00343 22.0231 8.163 22.0676 8.33913 22.0676C8.43572 22.0676 8.52853 22.0544 8.61754 22.0279C8.70656 22.0014 8.78752 21.9621 8.86044 21.91C8.9343 21.8569 8.9968 21.7921 9.04794 21.7154C9.10002 21.6377 9.13648 21.5487 9.15732 21.4483H9.50959C9.48307 21.597 9.43478 21.7301 9.3647 21.8475C9.29463 21.9649 9.2075 22.0648 9.10334 22.1472C8.99917 22.2286 8.88222 22.2907 8.75249 22.3333C8.6237 22.3759 8.48591 22.3972 8.33913 22.3972C8.09103 22.3972 7.87038 22.3366 7.6772 22.2154C7.48402 22.0942 7.33203 21.9218 7.22124 21.6983C7.11044 21.4748 7.05504 21.2097 7.05504 20.9029C7.05504 20.5961 7.11044 20.3309 7.22124 20.1074C7.33203 19.8839 7.48402 19.7116 7.6772 19.5904C7.87038 19.4692 8.09103 19.4086 8.33913 19.4086C8.48591 19.4086 8.6237 19.4299 8.75249 19.4725C8.88222 19.5151 8.99917 19.5776 9.10334 19.66C9.2075 19.7414 9.29463 19.8408 9.3647 19.9583C9.43478 20.0748 9.48307 20.2078 9.50959 20.3574Z" fill="black"/>
<path d="M1.23491 9.84091V9.55114L2.51332 7.52841H2.72354V7.97727H2.5815L1.61559 9.50568V9.52841H3.33718V9.84091H1.23491ZM2.60423 10.4375V9.75284V9.6179V7.52841H2.93945V10.4375H2.60423ZM4.77859 10.4773C4.61192 10.4773 4.46183 10.4441 4.3283 10.3778C4.19478 10.3116 4.08777 10.2206 4.00728 10.1051C3.92679 9.98958 3.88275 9.85795 3.87518 9.71023H4.21609C4.22934 9.84186 4.289 9.95076 4.39506 10.0369C4.50207 10.1222 4.62991 10.1648 4.77859 10.1648C4.8979 10.1648 5.00397 10.1368 5.09677 10.081C5.19052 10.0251 5.26391 9.94839 5.31694 9.85085C5.37092 9.75237 5.3979 9.6411 5.3979 9.51705C5.3979 9.39015 5.36997 9.27699 5.3141 9.17756C5.25917 9.07718 5.18342 8.99811 5.08683 8.94034C4.99023 8.88258 4.87991 8.85322 4.75586 8.85227C4.66684 8.85133 4.57546 8.86506 4.48171 8.89347C4.38796 8.92093 4.31078 8.95644 4.25018 9L3.92063 8.96023L4.09677 7.52841H5.60813V7.84091H4.39222L4.28995 8.69886H4.307C4.36665 8.65152 4.44147 8.61222 4.53143 8.58097C4.62139 8.54972 4.71514 8.53409 4.81268 8.53409C4.99071 8.53409 5.14933 8.5767 5.28853 8.66193C5.42868 8.74621 5.53853 8.86174 5.61808 9.00852C5.69857 9.1553 5.73881 9.32292 5.73881 9.51136C5.73881 9.69697 5.69715 9.86269 5.61381 10.0085C5.53143 10.1534 5.41779 10.268 5.2729 10.3523C5.12802 10.4356 4.96325 10.4773 4.77859 10.4773ZM6.91104 8.8125C6.79078 8.8125 6.68093 8.78314 6.5815 8.72443C6.48301 8.66572 6.40442 8.58712 6.3457 8.48864C6.28699 8.3892 6.25763 8.27936 6.25763 8.15909C6.25763 8.03883 6.28699 7.92945 6.3457 7.83097C6.40442 7.73153 6.48301 7.65246 6.5815 7.59375C6.68093 7.53504 6.79078 7.50568 6.91104 7.50568C7.03131 7.50568 7.14068 7.53504 7.23917 7.59375C7.3386 7.65246 7.41767 7.73153 7.47638 7.83097C7.5351 7.92945 7.56445 8.03883 7.56445 8.15909C7.56445 8.27936 7.5351 8.3892 7.47638 8.48864C7.41767 8.58712 7.3386 8.66572 7.23917 8.72443C7.14068 8.78314 7.03131 8.8125 6.91104 8.8125ZM6.91104 8.52841C6.97923 8.52841 7.04125 8.51184 7.09712 8.47869C7.15299 8.44555 7.1975 8.40104 7.23065 8.34517C7.26379 8.2893 7.28036 8.22727 7.28036 8.15909C7.28036 8.09091 7.26379 8.02888 7.23065 7.97301C7.1975 7.91714 7.15299 7.87263 7.09712 7.83949C7.04125 7.80634 6.97923 7.78977 6.91104 7.78977C6.84286 7.78977 6.78084 7.80634 6.72496 7.83949C6.66909 7.87263 6.62459 7.91714 6.59144 7.97301C6.5583 8.02888 6.54173 8.09091 6.54173 8.15909C6.54173 8.22727 6.5583 8.2893 6.59144 8.34517C6.62459 8.40104 6.66909 8.44555 6.72496 8.47869C6.78084 8.51184 6.84286 8.52841 6.91104 8.52841ZM10.4647 8.4375H10.1124C10.0916 8.33617 10.0551 8.24716 10.003 8.17045C9.95188 8.09375 9.88938 8.02936 9.81552 7.97727C9.7426 7.92424 9.66164 7.88447 9.57262 7.85795C9.48361 7.83144 9.3908 7.81818 9.29421 7.81818C9.11808 7.81818 8.95851 7.86269 8.81552 7.9517C8.67347 8.04072 8.56031 8.17188 8.47603 8.34517C8.3927 8.51847 8.35103 8.73106 8.35103 8.98295C8.35103 9.23485 8.3927 9.44744 8.47603 9.62074C8.56031 9.79403 8.67347 9.92519 8.81552 10.0142C8.95851 10.1032 9.11808 10.1477 9.29421 10.1477C9.3908 10.1477 9.48361 10.1345 9.57262 10.108C9.66164 10.0814 9.7426 10.0421 9.81552 9.99006C9.88938 9.93703 9.95188 9.87216 10.003 9.79545C10.0551 9.7178 10.0916 9.62879 10.1124 9.52841H10.4647C10.4382 9.67708 10.3899 9.81013 10.3198 9.92756C10.2497 10.045 10.1626 10.1449 10.0584 10.2273C9.95425 10.3087 9.8373 10.3707 9.70756 10.4134C9.57878 10.456 9.44099 10.4773 9.29421 10.4773C9.04611 10.4773 8.82546 10.4167 8.63228 10.2955C8.4391 10.1742 8.28711 10.0019 8.17631 9.77841C8.06552 9.55492 8.01012 9.28977 8.01012 8.98295C8.01012 8.67614 8.06552 8.41098 8.17631 8.1875C8.28711 7.96402 8.4391 7.79167 8.63228 7.67045C8.82546 7.54924 9.04611 7.48864 9.29421 7.48864C9.44099 7.48864 9.57878 7.50994 9.70756 7.55256C9.8373 7.59517 9.95425 7.65767 10.0584 7.74006C10.1626 7.8215 10.2497 7.92093 10.3198 8.03835C10.3899 8.15483 10.4382 8.28788 10.4647 8.4375Z" fill="black"/>
</svg>
